<mxGraphModel dx="956" dy="589" grid="1" gridSize="10" guides="1" tooltips="1" connect="1" arrows="1" fold="1" page="1" pageScale="1" pageWidth="850" pageHeight="1100" math="0" shadow="0">
  <root>
    <mxCell id="0" />
    <mxCell id="1" parent="0" />
    <mxCell id="o58Z0msrCkjOVuDn5jkX-1" value="project" style="shape=table;startSize=30;container=1;collapsible=1;childLayout=tableLayout;fixedRows=1;rowLines=0;fontStyle=1;align=center;resizeLast=1;html=1;" vertex="1" parent="1">
      <mxGeometry x="80" y="60" width="180" height="210" as="geometry" />
    </mxCell>
    <mxCell id="o58Z0msrCkjOVuDn5jkX-2" value="" style="shape=tableRow;horizontal=0;startSize=0;swimlaneHead=0;swimlaneBody=0;fillColor=none;collapsible=0;dropTarget=0;points=[[0,0.5],[1,0.5]];portConstraint=eastwest;top=0;left=0;right=0;bottom=1;" vertex="1" parent="o58Z0msrCkjOVuDn5jkX-1">
      <mxGeometry y="30" width="180" height="30" as="geometry" />
    </mxCell>
    <mxCell id="o58Z0msrCkjOVuDn5jkX-3" value="PK" style="shape=partialRectangle;connectable=0;fillColor=none;top=0;left=0;bottom=0;right=0;fontStyle=1;overflow=hidden;whiteSpace=wrap;html=1;" vertex="1" parent="o58Z0msrCkjOVuDn5jkX-2">
      <mxGeometry width="30" height="30" as="geometry">
        <mxRectangle width="30" height="30" as="alternateBounds" />
      </mxGeometry>
    </mxCell>
    <mxCell id="o58Z0msrCkjOVuDn5jkX-4" value="project_id" style="shape=partialRectangle;connectable=0;fillColor=none;top=0;left=0;bottom=0;right=0;align=left;spacingLeft=6;fontStyle=5;overflow=hidden;whiteSpace=wrap;html=1;" vertex="1" parent="o58Z0msrCkjOVuDn5jkX-2">
      <mxGeometry x="30" width="150" height="30" as="geometry">
        <mxRectangle width="150" height="30" as="alternateBounds" />
      </mxGeometry>
    </mxCell>
    <mxCell id="o58Z0msrCkjOVuDn5jkX-5" value="" style="shape=tableRow;horizontal=0;startSize=0;swimlaneHead=0;swimlaneBody=0;fillColor=none;collapsible=0;dropTarget=0;points=[[0,0.5],[1,0.5]];portConstraint=eastwest;top=0;left=0;right=0;bottom=0;" vertex="1" parent="o58Z0msrCkjOVuDn5jkX-1">
      <mxGeometry y="60" width="180" height="30" as="geometry" />
    </mxCell>
    <mxCell id="o58Z0msrCkjOVuDn5jkX-6" value="" style="shape=partialRectangle;connectable=0;fillColor=none;top=0;left=0;bottom=0;right=0;editable=1;overflow=hidden;whiteSpace=wrap;html=1;" vertex="1" parent="o58Z0msrCkjOVuDn5jkX-5">
      <mxGeometry width="30" height="30" as="geometry">
        <mxRectangle width="30" height="30" as="alternateBounds" />
      </mxGeometry>
    </mxCell>
    <mxCell id="o58Z0msrCkjOVuDn5jkX-7" value="project_name" style="shape=partialRectangle;connectable=0;fillColor=none;top=0;left=0;bottom=0;right=0;align=left;spacingLeft=6;overflow=hidden;whiteSpace=wrap;html=1;" vertex="1" parent="o58Z0msrCkjOVuDn5jkX-5">
      <mxGeometry x="30" width="150" height="30" as="geometry">
        <mxRectangle width="150" height="30" as="alternateBounds" />
      </mxGeometry>
    </mxCell>
    <mxCell id="o58Z0msrCkjOVuDn5jkX-8" value="" style="shape=tableRow;horizontal=0;startSize=0;swimlaneHead=0;swimlaneBody=0;fillColor=none;collapsible=0;dropTarget=0;points=[[0,0.5],[1,0.5]];portConstraint=eastwest;top=0;left=0;right=0;bottom=0;" vertex="1" parent="o58Z0msrCkjOVuDn5jkX-1">
      <mxGeometry y="90" width="180" height="30" as="geometry" />
    </mxCell>
    <mxCell id="o58Z0msrCkjOVuDn5jkX-9" value="" style="shape=partialRectangle;connectable=0;fillColor=none;top=0;left=0;bottom=0;right=0;editable=1;overflow=hidden;whiteSpace=wrap;html=1;" vertex="1" parent="o58Z0msrCkjOVuDn5jkX-8">
      <mxGeometry width="30" height="30" as="geometry">
        <mxRectangle width="30" height="30" as="alternateBounds" />
      </mxGeometry>
    </mxCell>
    <mxCell id="o58Z0msrCkjOVuDn5jkX-10" value="estimated_hours" style="shape=partialRectangle;connectable=0;fillColor=none;top=0;left=0;bottom=0;right=0;align=left;spacingLeft=6;overflow=hidden;whiteSpace=wrap;html=1;" vertex="1" parent="o58Z0msrCkjOVuDn5jkX-8">
      <mxGeometry x="30" width="150" height="30" as="geometry">
        <mxRectangle width="150" height="30" as="alternateBounds" />
      </mxGeometry>
    </mxCell>
    <mxCell id="o58Z0msrCkjOVuDn5jkX-11" value="" style="shape=tableRow;horizontal=0;startSize=0;swimlaneHead=0;swimlaneBody=0;fillColor=none;collapsible=0;dropTarget=0;points=[[0,0.5],[1,0.5]];portConstraint=eastwest;top=0;left=0;right=0;bottom=0;" vertex="1" parent="o58Z0msrCkjOVuDn5jkX-1">
      <mxGeometry y="120" width="180" height="30" as="geometry" />
    </mxCell>
    <mxCell id="o58Z0msrCkjOVuDn5jkX-12" value="" style="shape=partialRectangle;connectable=0;fillColor=none;top=0;left=0;bottom=0;right=0;editable=1;overflow=hidden;whiteSpace=wrap;html=1;" vertex="1" parent="o58Z0msrCkjOVuDn5jkX-11">
      <mxGeometry width="30" height="30" as="geometry">
        <mxRectangle width="30" height="30" as="alternateBounds" />
      </mxGeometry>
    </mxCell>
    <mxCell id="o58Z0msrCkjOVuDn5jkX-13" value="actual_hours" style="shape=partialRectangle;connectable=0;fillColor=none;top=0;left=0;bottom=0;right=0;align=left;spacingLeft=6;overflow=hidden;whiteSpace=wrap;html=1;" vertex="1" parent="o58Z0msrCkjOVuDn5jkX-11">
      <mxGeometry x="30" width="150" height="30" as="geometry">
        <mxRectangle width="150" height="30" as="alternateBounds" />
      </mxGeometry>
    </mxCell>
    <mxCell id="o58Z0msrCkjOVuDn5jkX-14" style="shape=tableRow;horizontal=0;startSize=0;swimlaneHead=0;swimlaneBody=0;fillColor=none;collapsible=0;dropTarget=0;points=[[0,0.5],[1,0.5]];portConstraint=eastwest;top=0;left=0;right=0;bottom=0;" vertex="1" parent="o58Z0msrCkjOVuDn5jkX-1">
      <mxGeometry y="150" width="180" height="30" as="geometry" />
    </mxCell>
    <mxCell id="o58Z0msrCkjOVuDn5jkX-15" style="shape=partialRectangle;connectable=0;fillColor=none;top=0;left=0;bottom=0;right=0;editable=1;overflow=hidden;whiteSpace=wrap;html=1;" vertex="1" parent="o58Z0msrCkjOVuDn5jkX-14">
      <mxGeometry width="30" height="30" as="geometry">
        <mxRectangle width="30" height="30" as="alternateBounds" />
      </mxGeometry>
    </mxCell>
    <mxCell id="o58Z0msrCkjOVuDn5jkX-16" value="difficulty" style="shape=partialRectangle;connectable=0;fillColor=none;top=0;left=0;bottom=0;right=0;align=left;spacingLeft=6;overflow=hidden;whiteSpace=wrap;html=1;" vertex="1" parent="o58Z0msrCkjOVuDn5jkX-14">
      <mxGeometry x="30" width="150" height="30" as="geometry">
        <mxRectangle width="150" height="30" as="alternateBounds" />
      </mxGeometry>
    </mxCell>
    <mxCell id="o58Z0msrCkjOVuDn5jkX-17" style="shape=tableRow;horizontal=0;startSize=0;swimlaneHead=0;swimlaneBody=0;fillColor=none;collapsible=0;dropTarget=0;points=[[0,0.5],[1,0.5]];portConstraint=eastwest;top=0;left=0;right=0;bottom=0;" vertex="1" parent="o58Z0msrCkjOVuDn5jkX-1">
      <mxGeometry y="180" width="180" height="30" as="geometry" />
    </mxCell>
    <mxCell id="o58Z0msrCkjOVuDn5jkX-18" style="shape=partialRectangle;connectable=0;fillColor=none;top=0;left=0;bottom=0;right=0;editable=1;overflow=hidden;whiteSpace=wrap;html=1;" vertex="1" parent="o58Z0msrCkjOVuDn5jkX-17">
      <mxGeometry width="30" height="30" as="geometry">
        <mxRectangle width="30" height="30" as="alternateBounds" />
      </mxGeometry>
    </mxCell>
    <mxCell id="o58Z0msrCkjOVuDn5jkX-19" value="notes" style="shape=partialRectangle;connectable=0;fillColor=none;top=0;left=0;bottom=0;right=0;align=left;spacingLeft=6;overflow=hidden;whiteSpace=wrap;html=1;" vertex="1" parent="o58Z0msrCkjOVuDn5jkX-17">
      <mxGeometry x="30" width="150" height="30" as="geometry">
        <mxRectangle width="150" height="30" as="alternateBounds" />
      </mxGeometry>
    </mxCell>
    <mxCell id="o58Z0msrCkjOVuDn5jkX-20" value="material" style="shape=table;startSize=30;container=1;collapsible=1;childLayout=tableLayout;fixedRows=1;rowLines=0;fontStyle=1;align=center;resizeLast=1;html=1;" vertex="1" parent="1">
      <mxGeometry x="520" y="60" width="180" height="180" as="geometry" />
    </mxCell>
    <mxCell id="o58Z0msrCkjOVuDn5jkX-21" value="" style="shape=tableRow;horizontal=0;startSize=0;swimlaneHead=0;swimlaneBody=0;fillColor=none;collapsible=0;dropTarget=0;points=[[0,0.5],[1,0.5]];portConstraint=eastwest;top=0;left=0;right=0;bottom=1;" vertex="1" parent="o58Z0msrCkjOVuDn5jkX-20">
      <mxGeometry y="30" width="180" height="30" as="geometry" />
    </mxCell>
    <mxCell id="o58Z0msrCkjOVuDn5jkX-22" value="PK" style="shape=partialRectangle;connectable=0;fillColor=none;top=0;left=0;bottom=0;right=0;fontStyle=1;overflow=hidden;whiteSpace=wrap;html=1;" vertex="1" parent="o58Z0msrCkjOVuDn5jkX-21">
      <mxGeometry width="30" height="30" as="geometry">
        <mxRectangle width="30" height="30" as="alternateBounds" />
      </mxGeometry>
    </mxCell>
    <mxCell id="o58Z0msrCkjOVuDn5jkX-23" value="material_id" style="shape=partialRectangle;connectable=0;fillColor=none;top=0;left=0;bottom=0;right=0;align=left;spacingLeft=6;fontStyle=5;overflow=hidden;whiteSpace=wrap;html=1;" vertex="1" parent="o58Z0msrCkjOVuDn5jkX-21">
      <mxGeometry x="30" width="150" height="30" as="geometry">
        <mxRectangle width="150" height="30" as="alternateBounds" />
      </mxGeometry>
    </mxCell>
    <mxCell id="o58Z0msrCkjOVuDn5jkX-24" value="" style="shape=tableRow;horizontal=0;startSize=0;swimlaneHead=0;swimlaneBody=0;fillColor=none;collapsible=0;dropTarget=0;points=[[0,0.5],[1,0.5]];portConstraint=eastwest;top=0;left=0;right=0;bottom=0;" vertex="1" parent="o58Z0msrCkjOVuDn5jkX-20">
      <mxGeometry y="60" width="180" height="30" as="geometry" />
    </mxCell>
    <mxCell id="o58Z0msrCkjOVuDn5jkX-25" value="FK" style="shape=partialRectangle;connectable=0;fillColor=none;top=0;left=0;bottom=0;right=0;editable=1;overflow=hidden;whiteSpace=wrap;html=1;" vertex="1" parent="o58Z0msrCkjOVuDn5jkX-24">
      <mxGeometry width="30" height="30" as="geometry">
        <mxRectangle width="30" height="30" as="alternateBounds" />
      </mxGeometry>
    </mxCell>
    <mxCell id="o58Z0msrCkjOVuDn5jkX-26" value="project_id" style="shape=partialRectangle;connectable=0;fillColor=none;top=0;left=0;bottom=0;right=0;align=left;spacingLeft=6;overflow=hidden;whiteSpace=wrap;html=1;" vertex="1" parent="o58Z0msrCkjOVuDn5jkX-24">
      <mxGeometry x="30" width="150" height="30" as="geometry">
        <mxRectangle width="150" height="30" as="alternateBounds" />
      </mxGeometry>
    </mxCell>
    <mxCell id="o58Z0msrCkjOVuDn5jkX-27" value="" style="shape=tableRow;horizontal=0;startSize=0;swimlaneHead=0;swimlaneBody=0;fillColor=none;collapsible=0;dropTarget=0;points=[[0,0.5],[1,0.5]];portConstraint=eastwest;top=0;left=0;right=0;bottom=0;" vertex="1" parent="o58Z0msrCkjOVuDn5jkX-20">
      <mxGeometry y="90" width="180" height="30" as="geometry" />
    </mxCell>
    <mxCell id="o58Z0msrCkjOVuDn5jkX-28" value="" style="shape=partialRectangle;connectable=0;fillColor=none;top=0;left=0;bottom=0;right=0;editable=1;overflow=hidden;whiteSpace=wrap;html=1;" vertex="1" parent="o58Z0msrCkjOVuDn5jkX-27">
      <mxGeometry width="30" height="30" as="geometry">
        <mxRectangle width="30" height="30" as="alternateBounds" />
      </mxGeometry>
    </mxCell>
    <mxCell id="o58Z0msrCkjOVuDn5jkX-29" value="material_name" style="shape=partialRectangle;connectable=0;fillColor=none;top=0;left=0;bottom=0;right=0;align=left;spacingLeft=6;overflow=hidden;whiteSpace=wrap;html=1;" vertex="1" parent="o58Z0msrCkjOVuDn5jkX-27">
      <mxGeometry x="30" width="150" height="30" as="geometry">
        <mxRectangle width="150" height="30" as="alternateBounds" />
      </mxGeometry>
    </mxCell>
    <mxCell id="o58Z0msrCkjOVuDn5jkX-30" value="" style="shape=tableRow;horizontal=0;startSize=0;swimlaneHead=0;swimlaneBody=0;fillColor=none;collapsible=0;dropTarget=0;points=[[0,0.5],[1,0.5]];portConstraint=eastwest;top=0;left=0;right=0;bottom=0;" vertex="1" parent="o58Z0msrCkjOVuDn5jkX-20">
      <mxGeometry y="120" width="180" height="30" as="geometry" />
    </mxCell>
    <mxCell id="o58Z0msrCkjOVuDn5jkX-31" value="" style="shape=partialRectangle;connectable=0;fillColor=none;top=0;left=0;bottom=0;right=0;editable=1;overflow=hidden;whiteSpace=wrap;html=1;" vertex="1" parent="o58Z0msrCkjOVuDn5jkX-30">
      <mxGeometry width="30" height="30" as="geometry">
        <mxRectangle width="30" height="30" as="alternateBounds" />
      </mxGeometry>
    </mxCell>
    <mxCell id="o58Z0msrCkjOVuDn5jkX-32" value="num_required" style="shape=partialRectangle;connectable=0;fillColor=none;top=0;left=0;bottom=0;right=0;align=left;spacingLeft=6;overflow=hidden;whiteSpace=wrap;html=1;" vertex="1" parent="o58Z0msrCkjOVuDn5jkX-30">
      <mxGeometry x="30" width="150" height="30" as="geometry">
        <mxRectangle width="150" height="30" as="alternateBounds" />
      </mxGeometry>
    </mxCell>
    <mxCell id="o58Z0msrCkjOVuDn5jkX-33" style="shape=tableRow;horizontal=0;startSize=0;swimlaneHead=0;swimlaneBody=0;fillColor=none;collapsible=0;dropTarget=0;points=[[0,0.5],[1,0.5]];portConstraint=eastwest;top=0;left=0;right=0;bottom=0;" vertex="1" parent="o58Z0msrCkjOVuDn5jkX-20">
      <mxGeometry y="150" width="180" height="30" as="geometry" />
    </mxCell>
    <mxCell id="o58Z0msrCkjOVuDn5jkX-34" style="shape=partialRectangle;connectable=0;fillColor=none;top=0;left=0;bottom=0;right=0;editable=1;overflow=hidden;whiteSpace=wrap;html=1;" vertex="1" parent="o58Z0msrCkjOVuDn5jkX-33">
      <mxGeometry width="30" height="30" as="geometry">
        <mxRectangle width="30" height="30" as="alternateBounds" />
      </mxGeometry>
    </mxCell>
    <mxCell id="o58Z0msrCkjOVuDn5jkX-35" value="cost" style="shape=partialRectangle;connectable=0;fillColor=none;top=0;left=0;bottom=0;right=0;align=left;spacingLeft=6;overflow=hidden;whiteSpace=wrap;html=1;" vertex="1" parent="o58Z0msrCkjOVuDn5jkX-33">
      <mxGeometry x="30" width="150" height="30" as="geometry">
        <mxRectangle width="150" height="30" as="alternateBounds" />
      </mxGeometry>
    </mxCell>
    <mxCell id="o58Z0msrCkjOVuDn5jkX-39" value="step" style="shape=table;startSize=30;container=1;collapsible=1;childLayout=tableLayout;fixedRows=1;rowLines=0;fontStyle=1;align=center;resizeLast=1;html=1;" vertex="1" parent="1">
      <mxGeometry x="520" y="360" width="180" height="150" as="geometry" />
    </mxCell>
    <mxCell id="o58Z0msrCkjOVuDn5jkX-40" value="" style="shape=tableRow;horizontal=0;startSize=0;swimlaneHead=0;swimlaneBody=0;fillColor=none;collapsible=0;dropTarget=0;points=[[0,0.5],[1,0.5]];portConstraint=eastwest;top=0;left=0;right=0;bottom=1;" vertex="1" parent="o58Z0msrCkjOVuDn5jkX-39">
      <mxGeometry y="30" width="180" height="30" as="geometry" />
    </mxCell>
    <mxCell id="o58Z0msrCkjOVuDn5jkX-41" value="PK" style="shape=partialRectangle;connectable=0;fillColor=none;top=0;left=0;bottom=0;right=0;fontStyle=1;overflow=hidden;whiteSpace=wrap;html=1;" vertex="1" parent="o58Z0msrCkjOVuDn5jkX-40">
      <mxGeometry width="30" height="30" as="geometry">
        <mxRectangle width="30" height="30" as="alternateBounds" />
      </mxGeometry>
    </mxCell>
    <mxCell id="o58Z0msrCkjOVuDn5jkX-42" value="step_id" style="shape=partialRectangle;connectable=0;fillColor=none;top=0;left=0;bottom=0;right=0;align=left;spacingLeft=6;fontStyle=5;overflow=hidden;whiteSpace=wrap;html=1;" vertex="1" parent="o58Z0msrCkjOVuDn5jkX-40">
      <mxGeometry x="30" width="150" height="30" as="geometry">
        <mxRectangle width="150" height="30" as="alternateBounds" />
      </mxGeometry>
    </mxCell>
    <mxCell id="o58Z0msrCkjOVuDn5jkX-43" value="" style="shape=tableRow;horizontal=0;startSize=0;swimlaneHead=0;swimlaneBody=0;fillColor=none;collapsible=0;dropTarget=0;points=[[0,0.5],[1,0.5]];portConstraint=eastwest;top=0;left=0;right=0;bottom=0;" vertex="1" parent="o58Z0msrCkjOVuDn5jkX-39">
      <mxGeometry y="60" width="180" height="30" as="geometry" />
    </mxCell>
    <mxCell id="o58Z0msrCkjOVuDn5jkX-44" value="FK" style="shape=partialRectangle;connectable=0;fillColor=none;top=0;left=0;bottom=0;right=0;editable=1;overflow=hidden;whiteSpace=wrap;html=1;" vertex="1" parent="o58Z0msrCkjOVuDn5jkX-43">
      <mxGeometry width="30" height="30" as="geometry">
        <mxRectangle width="30" height="30" as="alternateBounds" />
      </mxGeometry>
    </mxCell>
    <mxCell id="o58Z0msrCkjOVuDn5jkX-45" value="project_id" style="shape=partialRectangle;connectable=0;fillColor=none;top=0;left=0;bottom=0;right=0;align=left;spacingLeft=6;overflow=hidden;whiteSpace=wrap;html=1;" vertex="1" parent="o58Z0msrCkjOVuDn5jkX-43">
      <mxGeometry x="30" width="150" height="30" as="geometry">
        <mxRectangle width="150" height="30" as="alternateBounds" />
      </mxGeometry>
    </mxCell>
    <mxCell id="o58Z0msrCkjOVuDn5jkX-46" value="" style="shape=tableRow;horizontal=0;startSize=0;swimlaneHead=0;swimlaneBody=0;fillColor=none;collapsible=0;dropTarget=0;points=[[0,0.5],[1,0.5]];portConstraint=eastwest;top=0;left=0;right=0;bottom=0;" vertex="1" parent="o58Z0msrCkjOVuDn5jkX-39">
      <mxGeometry y="90" width="180" height="30" as="geometry" />
    </mxCell>
    <mxCell id="o58Z0msrCkjOVuDn5jkX-47" value="" style="shape=partialRectangle;connectable=0;fillColor=none;top=0;left=0;bottom=0;right=0;editable=1;overflow=hidden;whiteSpace=wrap;html=1;" vertex="1" parent="o58Z0msrCkjOVuDn5jkX-46">
      <mxGeometry width="30" height="30" as="geometry">
        <mxRectangle width="30" height="30" as="alternateBounds" />
      </mxGeometry>
    </mxCell>
    <mxCell id="o58Z0msrCkjOVuDn5jkX-48" value="step_text&lt;br&gt;" style="shape=partialRectangle;connectable=0;fillColor=none;top=0;left=0;bottom=0;right=0;align=left;spacingLeft=6;overflow=hidden;whiteSpace=wrap;html=1;" vertex="1" parent="o58Z0msrCkjOVuDn5jkX-46">
      <mxGeometry x="30" width="150" height="30" as="geometry">
        <mxRectangle width="150" height="30" as="alternateBounds" />
      </mxGeometry>
    </mxCell>
    <mxCell id="o58Z0msrCkjOVuDn5jkX-49" value="" style="shape=tableRow;horizontal=0;startSize=0;swimlaneHead=0;swimlaneBody=0;fillColor=none;collapsible=0;dropTarget=0;points=[[0,0.5],[1,0.5]];portConstraint=eastwest;top=0;left=0;right=0;bottom=0;" vertex="1" parent="o58Z0msrCkjOVuDn5jkX-39">
      <mxGeometry y="120" width="180" height="30" as="geometry" />
    </mxCell>
    <mxCell id="o58Z0msrCkjOVuDn5jkX-50" value="" style="shape=partialRectangle;connectable=0;fillColor=none;top=0;left=0;bottom=0;right=0;editable=1;overflow=hidden;whiteSpace=wrap;html=1;" vertex="1" parent="o58Z0msrCkjOVuDn5jkX-49">
      <mxGeometry width="30" height="30" as="geometry">
        <mxRectangle width="30" height="30" as="alternateBounds" />
      </mxGeometry>
    </mxCell>
    <mxCell id="o58Z0msrCkjOVuDn5jkX-51" value="step_order" style="shape=partialRectangle;connectable=0;fillColor=none;top=0;left=0;bottom=0;right=0;align=left;spacingLeft=6;overflow=hidden;whiteSpace=wrap;html=1;" vertex="1" parent="o58Z0msrCkjOVuDn5jkX-49">
      <mxGeometry x="30" width="150" height="30" as="geometry">
        <mxRectangle width="150" height="30" as="alternateBounds" />
      </mxGeometry>
    </mxCell>
    <mxCell id="o58Z0msrCkjOVuDn5jkX-55" value="category" style="shape=table;startSize=30;container=1;collapsible=1;childLayout=tableLayout;fixedRows=1;rowLines=0;fontStyle=1;align=center;resizeLast=1;html=1;" vertex="1" parent="1">
      <mxGeometry x="80" y="510" width="180" height="90" as="geometry" />
    </mxCell>
    <mxCell id="o58Z0msrCkjOVuDn5jkX-56" value="" style="shape=tableRow;horizontal=0;startSize=0;swimlaneHead=0;swimlaneBody=0;fillColor=none;collapsible=0;dropTarget=0;points=[[0,0.5],[1,0.5]];portConstraint=eastwest;top=0;left=0;right=0;bottom=1;" vertex="1" parent="o58Z0msrCkjOVuDn5jkX-55">
      <mxGeometry y="30" width="180" height="30" as="geometry" />
    </mxCell>
    <mxCell id="o58Z0msrCkjOVuDn5jkX-57" value="PK" style="shape=partialRectangle;connectable=0;fillColor=none;top=0;left=0;bottom=0;right=0;fontStyle=1;overflow=hidden;whiteSpace=wrap;html=1;" vertex="1" parent="o58Z0msrCkjOVuDn5jkX-56">
      <mxGeometry width="30" height="30" as="geometry">
        <mxRectangle width="30" height="30" as="alternateBounds" />
      </mxGeometry>
    </mxCell>
    <mxCell id="o58Z0msrCkjOVuDn5jkX-58" value="category_id" style="shape=partialRectangle;connectable=0;fillColor=none;top=0;left=0;bottom=0;right=0;align=left;spacingLeft=6;fontStyle=5;overflow=hidden;whiteSpace=wrap;html=1;" vertex="1" parent="o58Z0msrCkjOVuDn5jkX-56">
      <mxGeometry x="30" width="150" height="30" as="geometry">
        <mxRectangle width="150" height="30" as="alternateBounds" />
      </mxGeometry>
    </mxCell>
    <mxCell id="o58Z0msrCkjOVuDn5jkX-59" value="" style="shape=tableRow;horizontal=0;startSize=0;swimlaneHead=0;swimlaneBody=0;fillColor=none;collapsible=0;dropTarget=0;points=[[0,0.5],[1,0.5]];portConstraint=eastwest;top=0;left=0;right=0;bottom=0;" vertex="1" parent="o58Z0msrCkjOVuDn5jkX-55">
      <mxGeometry y="60" width="180" height="30" as="geometry" />
    </mxCell>
    <mxCell id="o58Z0msrCkjOVuDn5jkX-60" value="" style="shape=partialRectangle;connectable=0;fillColor=none;top=0;left=0;bottom=0;right=0;editable=1;overflow=hidden;whiteSpace=wrap;html=1;" vertex="1" parent="o58Z0msrCkjOVuDn5jkX-59">
      <mxGeometry width="30" height="30" as="geometry">
        <mxRectangle width="30" height="30" as="alternateBounds" />
      </mxGeometry>
    </mxCell>
    <mxCell id="o58Z0msrCkjOVuDn5jkX-61" value="category_name" style="shape=partialRectangle;connectable=0;fillColor=none;top=0;left=0;bottom=0;right=0;align=left;spacingLeft=6;overflow=hidden;whiteSpace=wrap;html=1;" vertex="1" parent="o58Z0msrCkjOVuDn5jkX-59">
      <mxGeometry x="30" width="150" height="30" as="geometry">
        <mxRectangle width="150" height="30" as="alternateBounds" />
      </mxGeometry>
    </mxCell>
    <mxCell id="o58Z0msrCkjOVuDn5jkX-91" value="project_category" style="shape=table;startSize=30;container=1;collapsible=1;childLayout=tableLayout;fixedRows=1;rowLines=0;fontStyle=1;align=center;resizeLast=1;html=1;whiteSpace=wrap;dashed=1;" vertex="1" parent="1">
      <mxGeometry x="80" y="340" width="180" height="90" as="geometry" />
    </mxCell>
    <mxCell id="o58Z0msrCkjOVuDn5jkX-92" value="" style="shape=tableRow;horizontal=0;startSize=0;swimlaneHead=0;swimlaneBody=0;fillColor=none;collapsible=0;dropTarget=0;points=[[0,0.5],[1,0.5]];portConstraint=eastwest;top=0;left=0;right=0;bottom=0;html=1;" vertex="1" parent="o58Z0msrCkjOVuDn5jkX-91">
      <mxGeometry y="30" width="180" height="30" as="geometry" />
    </mxCell>
    <mxCell id="o58Z0msrCkjOVuDn5jkX-93" value="PK,FK1" style="shape=partialRectangle;connectable=0;fillColor=none;top=0;left=0;bottom=0;right=0;fontStyle=1;overflow=hidden;html=1;whiteSpace=wrap;" vertex="1" parent="o58Z0msrCkjOVuDn5jkX-92">
      <mxGeometry width="60" height="30" as="geometry">
        <mxRectangle width="60" height="30" as="alternateBounds" />
      </mxGeometry>
    </mxCell>
    <mxCell id="o58Z0msrCkjOVuDn5jkX-94" value="project_id" style="shape=partialRectangle;connectable=0;fillColor=none;top=0;left=0;bottom=0;right=0;align=left;spacingLeft=6;fontStyle=5;overflow=hidden;html=1;whiteSpace=wrap;" vertex="1" parent="o58Z0msrCkjOVuDn5jkX-92">
      <mxGeometry x="60" width="120" height="30" as="geometry">
        <mxRectangle width="120" height="30" as="alternateBounds" />
      </mxGeometry>
    </mxCell>
    <mxCell id="o58Z0msrCkjOVuDn5jkX-95" value="" style="shape=tableRow;horizontal=0;startSize=0;swimlaneHead=0;swimlaneBody=0;fillColor=none;collapsible=0;dropTarget=0;points=[[0,0.5],[1,0.5]];portConstraint=eastwest;top=0;left=0;right=0;bottom=1;html=1;" vertex="1" parent="o58Z0msrCkjOVuDn5jkX-91">
      <mxGeometry y="60" width="180" height="30" as="geometry" />
    </mxCell>
    <mxCell id="o58Z0msrCkjOVuDn5jkX-96" value="PK,FK2" style="shape=partialRectangle;connectable=0;fillColor=none;top=0;left=0;bottom=0;right=0;fontStyle=1;overflow=hidden;html=1;whiteSpace=wrap;" vertex="1" parent="o58Z0msrCkjOVuDn5jkX-95">
      <mxGeometry width="60" height="30" as="geometry">
        <mxRectangle width="60" height="30" as="alternateBounds" />
      </mxGeometry>
    </mxCell>
    <mxCell id="o58Z0msrCkjOVuDn5jkX-97" value="category_id" style="shape=partialRectangle;connectable=0;fillColor=none;top=0;left=0;bottom=0;right=0;align=left;spacingLeft=6;fontStyle=5;overflow=hidden;html=1;whiteSpace=wrap;" vertex="1" parent="o58Z0msrCkjOVuDn5jkX-95">
      <mxGeometry x="60" width="120" height="30" as="geometry">
        <mxRectangle width="120" height="30" as="alternateBounds" />
      </mxGeometry>
    </mxCell>
    <mxCell id="o58Z0msrCkjOVuDn5jkX-105" value="" style="fontSize=12;html=1;endArrow=ERzeroToMany;endFill=1;startArrow=ERzeroToMany;rounded=0;entryX=0;entryY=0.5;entryDx=0;entryDy=0;exitX=0;exitY=0.5;exitDx=0;exitDy=0;edgeStyle=orthogonalEdgeStyle;curved=1;" edge="1" parent="1" source="o58Z0msrCkjOVuDn5jkX-56" target="o58Z0msrCkjOVuDn5jkX-2">
      <mxGeometry width="100" height="100" relative="1" as="geometry">
        <mxPoint x="-30" y="460" as="sourcePoint" />
        <mxPoint x="70" y="360" as="targetPoint" />
        <Array as="points">
          <mxPoint x="30" y="555" />
          <mxPoint x="30" y="105" />
        </Array>
      </mxGeometry>
    </mxCell>
    <mxCell id="o58Z0msrCkjOVuDn5jkX-106" value="" style="endArrow=none;html=1;rounded=0;dashed=1;" edge="1" parent="1">
      <mxGeometry relative="1" as="geometry">
        <mxPoint x="30" y="360" as="sourcePoint" />
        <mxPoint x="80" y="360" as="targetPoint" />
      </mxGeometry>
    </mxCell>
    <mxCell id="o58Z0msrCkjOVuDn5jkX-107" value="" style="edgeStyle=entityRelationEdgeStyle;fontSize=12;html=1;endArrow=ERzeroToMany;startArrow=ERmandOne;rounded=0;exitX=1;exitY=0.252;exitDx=0;exitDy=0;exitPerimeter=0;" edge="1" parent="1" source="o58Z0msrCkjOVuDn5jkX-2">
      <mxGeometry width="100" height="100" relative="1" as="geometry">
        <mxPoint x="420" y="230" as="sourcePoint" />
        <mxPoint x="520" y="130" as="targetPoint" />
      </mxGeometry>
    </mxCell>
    <mxCell id="o58Z0msrCkjOVuDn5jkX-108" value="" style="edgeStyle=entityRelationEdgeStyle;fontSize=12;html=1;endArrow=ERzeroToMany;startArrow=ERmandOne;rounded=0;exitX=0.998;exitY=0.811;exitDx=0;exitDy=0;exitPerimeter=0;" edge="1" parent="1" source="o58Z0msrCkjOVuDn5jkX-2">
      <mxGeometry width="100" height="100" relative="1" as="geometry">
        <mxPoint x="420" y="530" as="sourcePoint" />
        <mxPoint x="520" y="430" as="targetPoint" />
        <Array as="points">
          <mxPoint x="280" y="115" />
        </Array>
      </mxGeometry>
    </mxCell>
  </root>
</mxGraphModel>